<svg width="157" height="53" viewBox="0 0 157 53" fill="none" xmlns="http://www.w3.org/2000/svg">
<path d="M2.34 39V14.052H17.208L16.596 18.264H8.244V24.888H15.516V29.1H8.244V39H2.34ZM26.2083 19.884V39H20.5203V19.884H26.2083ZM23.3283 9.804C24.3123 9.804 25.1163 10.116 25.7403 10.74C26.3883 11.34 26.7123 12.108 26.7123 13.044C26.7123 13.98 26.3883 14.76 25.7403 15.384C25.1163 15.984 24.3123 16.284 23.3283 16.284C22.3443 16.284 21.5403 15.984 20.9163 15.384C20.2923 14.76 19.9803 13.98 19.9803 13.044C19.9803 12.108 20.2923 11.34 20.9163 10.74C21.5403 10.116 22.3443 9.804 23.3283 9.804ZM42.8484 19.344C43.5444 19.344 44.1804 19.428 44.7564 19.596L43.8564 25.104C43.1364 24.936 42.5604 24.852 42.1284 24.852C41.0004 24.852 40.1364 25.248 39.5364 26.04C38.9604 26.808 38.5044 27.972 38.1684 29.532V39H32.4804V19.884H37.4484L37.9164 23.592C38.3484 22.272 38.9964 21.24 39.8604 20.496C40.7484 19.728 41.7444 19.344 42.8484 19.344ZM55.0398 19.272C56.4078 19.272 57.6918 19.476 58.8918 19.884C60.0918 20.292 61.1478 20.868 62.0598 21.612L59.9718 24.816C58.4118 23.832 56.8398 23.34 55.2558 23.34C54.5118 23.34 53.9358 23.472 53.5278 23.736C53.1438 23.976 52.9518 24.324 52.9518 24.78C52.9518 25.14 53.0358 25.44 53.2038 25.68C53.3958 25.896 53.7678 26.124 54.3198 26.364C54.8718 26.604 55.7238 26.892 56.8758 27.228C58.8678 27.804 60.3438 28.56 61.3038 29.496C62.2878 30.408 62.7798 31.68 62.7798 33.312C62.7798 34.608 62.4078 35.736 61.6638 36.696C60.9198 37.632 59.8998 38.352 58.6038 38.856C57.3078 39.36 55.8678 39.612 54.2838 39.612C52.6758 39.612 51.1758 39.36 49.7838 38.856C48.4158 38.352 47.2518 37.656 46.2918 36.768L49.0638 33.672C50.6718 34.92 52.3638 35.544 54.1398 35.544C55.0038 35.544 55.6758 35.388 56.1558 35.076C56.6598 34.764 56.9118 34.32 56.9118 33.744C56.9118 33.288 56.8158 32.928 56.6238 32.664C56.4318 32.4 56.0598 32.16 55.5078 31.944C54.9558 31.704 54.0798 31.416 52.8798 31.08C50.9838 30.528 49.5678 29.76 48.6318 28.776C47.6958 27.792 47.2278 26.568 47.2278 25.104C47.2278 24 47.5398 23.016 48.1638 22.152C48.8118 21.264 49.7238 20.568 50.8998 20.064C52.0998 19.536 53.4798 19.272 55.0398 19.272ZM79.4981 38.1C78.8021 38.58 77.9861 38.952 77.0501 39.216C76.1381 39.48 75.2261 39.612 74.3141 39.612C70.1381 39.588 68.0501 37.284 68.0501 32.7V23.844H65.3501V19.884H68.0501V15.744L73.7381 15.096V19.884H78.1301L77.5181 23.844H73.7381V32.628C73.7381 33.516 73.8821 34.152 74.1701 34.536C74.4581 34.92 74.9141 35.112 75.5381 35.112C76.1861 35.112 76.8701 34.908 77.5901 34.5L79.4981 38.1Z" fill="#8F8F8F"/>
<path d="M2.34 39H1.34V40H2.34V39ZM2.34 14.052V13.052H1.34V14.052H2.34ZM17.208 14.052L18.1976 14.1958L18.3638 13.052H17.208V14.052ZM16.596 18.264V19.264H17.4612L17.5856 18.4078L16.596 18.264ZM8.244 18.264V17.264H7.244V18.264H8.244ZM8.244 24.888H7.244V25.888H8.244V24.888ZM15.516 24.888H16.516V23.888H15.516V24.888ZM15.516 29.1V30.1H16.516V29.1H15.516ZM8.244 29.1V28.1H7.244V29.1H8.244ZM8.244 39V40H9.244V39H8.244ZM3.34 39V14.052H1.34V39H3.34ZM2.34 15.052H17.208V13.052H2.34V15.052ZM16.2184 13.9082L15.6064 18.1202L17.5856 18.4078L18.1976 14.1958L16.2184 13.9082ZM16.596 17.264H8.244V19.264H16.596V17.264ZM7.244 18.264V24.888H9.244V18.264H7.244ZM8.244 25.888H15.516V23.888H8.244V25.888ZM14.516 24.888V29.1H16.516V24.888H14.516ZM15.516 28.1H8.244V30.1H15.516V28.1ZM7.244 29.1V39H9.244V29.1H7.244ZM8.244 38H2.34V40H8.244V38ZM26.2083 19.884H27.2083V18.884H26.2083V19.884ZM26.2083 39V40H27.2083V39H26.2083ZM20.5203 39H19.5203V40H20.5203V39ZM20.5203 19.884V18.884H19.5203V19.884H20.5203ZM25.7403 10.74L25.0332 11.4471L25.0468 11.4607L25.0609 11.4738L25.7403 10.74ZM25.7403 15.384L26.4334 16.1048L26.4339 16.1043L25.7403 15.384ZM20.9163 15.384L20.2092 16.0911L20.2161 16.098L20.2232 16.1048L20.9163 15.384ZM20.9163 10.74L21.6094 11.4608L21.6165 11.454L21.6234 11.4471L20.9163 10.74ZM25.2083 19.884V39H27.2083V19.884H25.2083ZM26.2083 38H20.5203V40H26.2083V38ZM21.5203 39V19.884H19.5203V39H21.5203ZM20.5203 20.884H26.2083V18.884H20.5203V20.884ZM23.3283 10.804C24.0805 10.804 24.6191 11.033 25.0332 11.4471L26.4474 10.0329C25.6135 9.19899 24.5441 8.804 23.3283 8.804V10.804ZM25.0609 11.4738C25.4911 11.8721 25.7123 12.3678 25.7123 13.044H27.7123C27.7123 11.8482 27.2854 10.8079 26.4197 10.0062L25.0609 11.4738ZM25.7123 13.044C25.7123 13.7206 25.4902 14.2366 25.0466 14.6637L26.4339 16.1043C27.2864 15.2834 27.7123 14.2394 27.7123 13.044H25.7123ZM25.0472 14.6632C24.6353 15.0592 24.0921 15.284 23.3283 15.284V17.284C24.5325 17.284 25.5973 16.9088 26.4334 16.1048L25.0472 14.6632ZM23.3283 15.284C22.5645 15.284 22.0213 15.0592 21.6094 14.6632L20.2232 16.1048C21.0593 16.9088 22.1241 17.284 23.3283 17.284V15.284ZM21.6234 14.6769C21.1992 14.2527 20.9803 13.7326 20.9803 13.044H18.9803C18.9803 14.2274 19.3854 15.2673 20.2092 16.0911L21.6234 14.6769ZM20.9803 13.044C20.9803 12.3555 21.1985 11.8559 21.6094 11.4608L20.2232 10.0192C19.3861 10.8241 18.9803 11.8605 18.9803 13.044H20.9803ZM21.6234 11.4471C22.0375 11.033 22.5761 10.804 23.3283 10.804V8.804C22.1125 8.804 21.0431 9.19899 20.2092 10.0329L21.6234 11.4471ZM44.7564 19.596L45.7434 19.7573L45.8861 18.8838L45.0364 18.636L44.7564 19.596ZM43.8564 25.104L43.6292 26.0778L44.6709 26.3209L44.8433 25.2653L43.8564 25.104ZM39.5364 26.04L38.7393 25.4361L38.7364 25.44L39.5364 26.04ZM38.1684 29.532L37.1909 29.3214L37.1684 29.4255V29.532H38.1684ZM38.1684 39V40H39.1684V39H38.1684ZM32.4804 39H31.4804V40H32.4804V39ZM32.4804 19.884V18.884H31.4804V19.884H32.4804ZM37.4484 19.884L38.4406 19.7588L38.3302 18.884H37.4484V19.884ZM37.9164 23.592L36.9243 23.7172L38.8668 23.903L37.9164 23.592ZM39.8604 20.496L40.513 21.2538L40.5146 21.2524L39.8604 20.496ZM42.8484 20.344C43.4645 20.344 44.0046 20.4184 44.4764 20.556L45.0364 18.636C44.3563 18.4376 43.6244 18.344 42.8484 18.344V20.344ZM43.7695 19.4347L42.8695 24.9427L44.8433 25.2653L45.7434 19.7573L43.7695 19.4347ZM44.0837 24.1302C43.3338 23.9552 42.6721 23.852 42.1284 23.852V25.852C42.4487 25.852 42.9391 25.9168 43.6292 26.0778L44.0837 24.1302ZM42.1284 23.852C40.7357 23.852 39.5558 24.3584 38.7393 25.4361L40.3335 26.6439C40.7171 26.1376 41.2652 25.852 42.1284 25.852V23.852ZM38.7364 25.44C38.0348 26.3755 37.5397 27.702 37.1909 29.3214L39.146 29.7426C39.4692 28.242 39.8861 27.2405 40.3364 26.64L38.7364 25.44ZM37.1684 29.532V39H39.1684V29.532H37.1684ZM38.1684 38H32.4804V40H38.1684V38ZM33.4804 39V19.884H31.4804V39H33.4804ZM32.4804 20.884H37.4484V18.884H32.4804V20.884ZM36.4563 20.0092L36.9243 23.7172L38.9086 23.4668L38.4406 19.7588L36.4563 20.0092ZM38.8668 23.903C39.2545 22.7185 39.8144 21.8553 40.513 21.2538L39.2079 19.7382C38.1784 20.6247 37.4424 21.8255 36.966 23.281L38.8668 23.903ZM40.5146 21.2524C41.2334 20.6307 42.0007 20.344 42.8484 20.344V18.344C41.4882 18.344 40.2635 18.8253 39.2063 19.7396L40.5146 21.2524ZM58.8918 19.884L58.5699 20.8308L58.8918 19.884ZM62.0598 21.612L62.8976 22.158L63.3882 21.4052L62.6919 20.8371L62.0598 21.612ZM59.9718 24.816L59.4383 25.6618L60.2716 26.1875L60.8096 25.362L59.9718 24.816ZM53.5278 23.736L54.0578 24.584L54.0644 24.5798L54.071 24.5756L53.5278 23.736ZM53.2038 25.68L52.3846 26.2535L52.4178 26.301L52.4564 26.3444L53.2038 25.68ZM54.3198 26.364L53.9211 27.2811H53.9211L54.3198 26.364ZM56.8758 27.228L56.5958 28.188L56.598 28.1886L56.8758 27.228ZM61.3038 29.496L60.6057 30.212L60.6147 30.2208L60.624 30.2294L61.3038 29.496ZM61.6638 36.696L62.4467 37.3183L62.4542 37.3086L61.6638 36.696ZM58.6038 38.856L58.9662 39.788L58.6038 38.856ZM49.7838 38.856L49.4381 39.7944L49.4433 39.7963L49.7838 38.856ZM46.2918 36.768L45.5468 36.101L44.8904 36.834L45.6127 37.5021L46.2918 36.768ZM49.0638 33.672L49.6769 32.882L48.9405 32.3105L48.3188 33.005L49.0638 33.672ZM56.1558 35.076L55.6294 34.2257L55.62 34.2315L55.6108 34.2376L56.1558 35.076ZM56.6238 32.664L55.815 33.2522L56.6238 32.664ZM55.5078 31.944L55.1091 32.8611L55.1261 32.8685L55.1434 32.8752L55.5078 31.944ZM52.8798 31.08L52.6002 32.0402L52.6102 32.043L52.8798 31.08ZM48.6318 28.776L47.9072 29.4652L48.6318 28.776ZM48.1638 22.152L47.356 21.5625L47.3531 21.5665L48.1638 22.152ZM50.8998 20.064L51.2937 20.9832L51.3025 20.9793L50.8998 20.064ZM55.0398 20.272C56.307 20.272 57.4815 20.4607 58.5699 20.8308L59.2137 18.9372C57.9021 18.4913 56.5086 18.272 55.0398 18.272V20.272ZM58.5699 20.8308C59.6658 21.2034 60.6149 21.7238 61.4277 22.3869L62.6919 20.8371C61.6807 20.0122 60.5178 19.3806 59.2137 18.9372L58.5699 20.8308ZM61.222 21.066L59.134 24.27L60.8096 25.362L62.8976 22.158L61.222 21.066ZM60.5053 23.9702C58.8123 22.9023 57.0579 22.34 55.2558 22.34V24.34C56.6217 24.34 58.0112 24.7617 59.4383 25.6618L60.5053 23.9702ZM55.2558 22.34C54.414 22.34 53.619 22.4859 52.9845 22.8964L54.071 24.5756C54.2526 24.4581 54.6096 24.34 55.2558 24.34V22.34ZM52.9978 22.888C52.3189 23.3123 51.9518 23.9822 51.9518 24.78H53.9518C53.9518 24.6958 53.9683 24.6656 53.9714 24.6601C53.9742 24.6549 53.9898 24.6265 54.0578 24.584L52.9978 22.888ZM51.9518 24.78C51.9518 25.2976 52.0743 25.8102 52.3846 26.2535L54.023 25.1065C53.9973 25.0698 53.9518 24.9824 53.9518 24.78H51.9518ZM52.4564 26.3444C52.8026 26.7339 53.3495 27.0326 53.9211 27.2811L54.7185 25.4469C54.4705 25.3391 54.2839 25.2429 54.1493 25.1604C54.0828 25.1196 54.0342 25.0854 54.0001 25.0585C53.9833 25.0453 53.9712 25.0348 53.9629 25.0271C53.9546 25.0194 53.9511 25.0155 53.9512 25.0156L52.4564 26.3444ZM53.9211 27.2811C54.5331 27.5472 55.4347 27.8494 56.5958 28.188L57.1558 26.268C56.0128 25.9346 55.2104 25.6608 54.7185 25.4469L53.9211 27.2811ZM56.598 28.1886C58.5105 28.7416 59.8107 29.4369 60.6057 30.212L62.0019 28.78C60.8768 27.6831 59.2251 26.8664 57.1536 26.2674L56.598 28.1886ZM60.624 30.2294C61.3606 30.9121 61.7798 31.8934 61.7798 33.312H63.7798C63.7798 31.4666 63.215 29.9039 61.9835 28.7626L60.624 30.2294ZM61.7798 33.312C61.7798 34.4021 61.4721 35.3109 60.8734 36.0834L62.4542 37.3086C63.3435 36.1611 63.7798 34.8139 63.7798 33.312H61.7798ZM60.881 36.0738C60.264 36.8499 59.3995 37.4736 58.2413 37.924L58.9662 39.788C60.4001 39.2304 61.5755 38.4141 62.4466 37.3182L60.881 36.0738ZM58.2413 37.924C57.0758 38.3773 55.7609 38.612 54.2838 38.612V40.612C55.9747 40.612 57.5397 40.3427 58.9662 39.788L58.2413 37.924ZM54.2838 38.612C52.7819 38.612 51.398 38.3769 50.1242 37.9157L49.4433 39.7963C50.9535 40.3431 52.5697 40.612 54.2838 40.612V38.612ZM50.1295 37.9177C48.8708 37.4539 47.8237 36.8228 46.9708 36.0339L45.6127 37.5021C46.6798 38.4892 47.9608 39.2501 49.4381 39.7943L50.1295 37.9177ZM47.0368 37.435L49.8088 34.339L48.3188 33.005L45.5468 36.101L47.0368 37.435ZM48.4507 34.462C50.2072 35.8253 52.11 36.544 54.1398 36.544V34.544C52.6175 34.544 51.1364 34.0147 49.6769 32.882L48.4507 34.462ZM54.1398 36.544C55.1053 36.544 55.9956 36.3728 56.7008 35.9144L55.6108 34.2376C55.3559 34.4032 54.9023 34.544 54.1398 34.544V36.544ZM56.6821 35.9263C57.4702 35.4384 57.9118 34.6784 57.9118 33.744H55.9118C55.9118 33.9616 55.8494 34.0896 55.6294 34.2257L56.6821 35.9263ZM57.9118 33.744C57.9118 33.1583 57.7895 32.5667 57.4325 32.0758L55.815 33.2522C55.8421 33.2893 55.9118 33.4177 55.9118 33.744H57.9118ZM57.4325 32.0758C57.0692 31.5763 56.477 31.2494 55.8722 31.0128L55.1434 32.8752C55.6426 33.0706 55.7944 33.2237 55.815 33.2522L57.4325 32.0758ZM55.9065 31.0269C55.2884 30.7582 54.3573 30.4552 53.1494 30.117L52.6102 32.043C53.8023 32.3768 54.6232 32.6498 55.1091 32.8611L55.9065 31.0269ZM53.1593 30.1199C51.3608 29.5962 50.1275 28.8975 49.3563 28.0868L47.9072 29.4652C49.0081 30.6225 50.6068 31.4598 52.6003 32.0401L53.1593 30.1199ZM49.3563 28.0868C48.6117 27.304 48.2278 26.3334 48.2278 25.104H46.2278C46.2278 26.8026 46.7798 28.28 47.9072 29.4652L49.3563 28.0868ZM48.2278 25.104C48.2278 24.2022 48.4782 23.4247 48.9745 22.7375L47.3531 21.5665C46.6014 22.6073 46.2278 23.7978 46.2278 25.104H48.2278ZM48.9716 22.7415C49.4974 22.0208 50.2554 21.4281 51.2937 20.9831L50.5059 19.1449C49.1922 19.7079 48.1261 20.5072 47.356 21.5625L48.9716 22.7415ZM51.3025 20.9793C52.3538 20.5167 53.5925 20.272 55.0398 20.272V18.272C53.367 18.272 51.8457 18.5553 50.497 19.1487L51.3025 20.9793ZM79.4981 38.1L80.0659 38.9232L80.7984 38.418L80.3817 37.6317L79.4981 38.1ZM77.0501 39.216L76.7787 38.2535L76.7721 38.2554L77.0501 39.216ZM74.3141 39.612L74.3084 40.612H74.3141V39.612ZM68.0501 23.844H69.0501V22.844H68.0501V23.844ZM65.3501 23.844H64.3501V24.844H65.3501V23.844ZM65.3501 19.884V18.884H64.3501V19.884H65.3501ZM68.0501 19.884V20.884H69.0501V19.884H68.0501ZM68.0501 15.744L67.9369 14.7504L67.0501 14.8515V15.744H68.0501ZM73.7381 15.096H74.7381V13.9756L73.6249 14.1024L73.7381 15.096ZM73.7381 19.884H72.7381V20.884H73.7381V19.884ZM78.1301 19.884L79.1184 20.0367L79.2965 18.884H78.1301V19.884ZM77.5181 23.844V24.844H78.3755L78.5064 23.9967L77.5181 23.844ZM73.7381 23.844V22.844H72.7381V23.844H73.7381ZM74.1701 34.536L74.9701 33.936L74.1701 34.536ZM77.5901 34.5L78.4737 34.0317L77.992 33.1229L77.0971 33.63L77.5901 34.5ZM78.9304 37.2768C78.3373 37.6858 77.6245 38.015 76.7787 38.2536L77.3216 40.1785C78.3477 39.889 79.267 39.4742 80.0659 38.9232L78.9304 37.2768ZM76.7721 38.2554C75.9467 38.4944 75.1282 38.612 74.3141 38.612V40.612C75.324 40.612 76.3295 40.4656 77.3282 40.1766L76.7721 38.2554ZM74.3199 38.612C72.4117 38.6011 71.1546 38.0745 70.3571 37.1945C69.5438 36.297 69.0501 34.8592 69.0501 32.7H67.0501C67.0501 35.1248 67.6005 37.131 68.8751 38.5375C70.1656 39.9615 72.0406 40.5989 74.3084 40.612L74.3199 38.612ZM69.0501 32.7V23.844H67.0501V32.7H69.0501ZM68.0501 22.844H65.3501V24.844H68.0501V22.844ZM66.3501 23.844V19.884H64.3501V23.844H66.3501ZM65.3501 20.884H68.0501V18.884H65.3501V20.884ZM69.0501 19.884V15.744H67.0501V19.884H69.0501ZM68.1633 16.7376L73.8513 16.0896L73.6249 14.1024L67.9369 14.7504L68.1633 16.7376ZM72.7381 15.096V19.884H74.7381V15.096H72.7381ZM73.7381 20.884H78.1301V18.884H73.7381V20.884ZM77.1419 19.7313L76.5299 23.6913L78.5064 23.9967L79.1184 20.0367L77.1419 19.7313ZM77.5181 22.844H73.7381V24.844H77.5181V22.844ZM72.7381 23.844V32.628H74.7381V23.844H72.7381ZM72.7381 32.628C72.7381 33.5726 72.8813 34.4842 73.3701 35.136L74.9701 33.936C74.883 33.8198 74.7381 33.4594 74.7381 32.628H72.7381ZM73.3701 35.136C73.9014 35.8444 74.7027 36.112 75.5381 36.112V34.112C75.1255 34.112 75.0149 33.9956 74.9701 33.936L73.3701 35.136ZM75.5381 36.112C76.4005 36.112 77.2536 35.8401 78.0831 35.37L77.0971 33.63C76.4866 33.9759 75.9718 34.112 75.5381 34.112V36.112ZM76.7066 34.9683L78.6145 38.5683L80.3817 37.6317L78.4737 34.0317L76.7066 34.9683Z" fill="white"/>
<rect x="90" y="7" width="66" height="39" fill="#8F8F8F" stroke="#E5E7EB" stroke-width="2"/>
<path d="M101.088 16.328C102.227 16.328 103.118 16.678 103.762 17.378C104.406 18.0687 104.728 19.0393 104.728 20.29C104.728 21.0833 104.579 21.7787 104.28 22.376C103.991 22.964 103.571 23.4213 103.02 23.748C102.479 24.0747 101.835 24.238 101.088 24.238C99.9587 24.238 99.0673 23.8927 98.414 23.202C97.77 22.502 97.448 21.5267 97.448 20.276C97.448 19.4827 97.5927 18.792 97.882 18.204C98.1807 17.6067 98.6007 17.1447 99.142 16.818C99.6927 16.4913 100.341 16.328 101.088 16.328ZM101.088 17.952C100.64 17.952 100.304 18.1433 100.08 18.526C99.856 18.8993 99.744 19.4827 99.744 20.276C99.744 21.088 99.8513 21.6807 100.066 22.054C100.29 22.4273 100.631 22.614 101.088 22.614C101.536 22.614 101.872 22.4273 102.096 22.054C102.32 21.6713 102.432 21.0833 102.432 20.29C102.432 19.478 102.32 18.8853 102.096 18.512C101.881 18.1387 101.545 17.952 101.088 17.952ZM111.098 16.328C111.742 16.328 112.246 16.524 112.61 16.916C112.974 17.308 113.156 17.8587 113.156 18.568V24H110.944V18.946C110.944 18.5727 110.883 18.316 110.762 18.176C110.65 18.0267 110.477 17.952 110.244 17.952C109.796 17.952 109.366 18.274 108.956 18.918V24H106.744V16.566H108.676L108.83 17.448C109.147 17.0747 109.488 16.7947 109.852 16.608C110.225 16.4213 110.64 16.328 111.098 16.328ZM124.208 23.65C123.937 23.8367 123.62 23.9813 123.256 24.084C122.901 24.1867 122.547 24.238 122.192 24.238C120.568 24.2287 119.756 23.3327 119.756 21.55V18.106H118.706V16.566H119.756V14.956L121.968 14.704V16.566H123.676L123.438 18.106H121.968V21.522C121.968 21.8673 122.024 22.1147 122.136 22.264C122.248 22.4133 122.425 22.488 122.668 22.488C122.92 22.488 123.186 22.4087 123.466 22.25L124.208 23.65ZM130.001 16.328C130.645 16.328 131.149 16.524 131.513 16.916C131.877 17.308 132.059 17.8587 132.059 18.568V24H129.847V18.946C129.847 18.5727 129.786 18.316 129.665 18.176C129.543 18.0267 129.371 17.952 129.147 17.952C128.699 17.952 128.269 18.2693 127.859 18.904V24H125.647V13.612L127.859 13.388V17.364C128.167 17.0187 128.493 16.762 128.839 16.594C129.184 16.4167 129.571 16.328 130.001 16.328ZM140.909 20.136C140.909 20.444 140.895 20.71 140.867 20.934H136.261C136.335 21.5593 136.513 21.998 136.793 22.25C137.073 22.502 137.46 22.628 137.955 22.628C138.253 22.628 138.543 22.5767 138.823 22.474C139.103 22.362 139.406 22.194 139.733 21.97L140.643 23.202C139.775 23.8927 138.809 24.238 137.745 24.238C136.541 24.238 135.617 23.8833 134.973 23.174C134.329 22.4647 134.007 21.5127 134.007 20.318C134.007 19.562 134.142 18.8853 134.413 18.288C134.683 17.6813 135.08 17.2053 135.603 16.86C136.125 16.5053 136.751 16.328 137.479 16.328C138.552 16.328 139.392 16.664 139.999 17.336C140.605 18.008 140.909 18.9413 140.909 20.136ZM138.739 19.506C138.72 18.3673 138.319 17.798 137.535 17.798C137.152 17.798 136.853 17.938 136.639 18.218C136.433 18.498 136.307 18.96 136.261 19.604H138.739V19.506ZM101.9 29.356C102.171 29.356 102.418 29.3887 102.642 29.454L102.292 31.596C102.012 31.5307 101.788 31.498 101.62 31.498C101.181 31.498 100.845 31.652 100.612 31.96C100.388 32.2587 100.211 32.7113 100.08 33.318V37H97.868V29.566H99.8L99.982 31.008C100.15 30.4947 100.402 30.0933 100.738 29.804C101.083 29.5053 101.471 29.356 101.9 29.356ZM106.983 29.328C108.122 29.328 109.013 29.678 109.657 30.378C110.301 31.0687 110.623 32.0393 110.623 33.29C110.623 34.0833 110.474 34.7787 110.175 35.376C109.886 35.964 109.466 36.4213 108.915 36.748C108.374 37.0747 107.73 37.238 106.983 37.238C105.854 37.238 104.963 36.8927 104.309 36.202C103.665 35.502 103.343 34.5267 103.343 33.276C103.343 32.4827 103.488 31.792 103.777 31.204C104.076 30.6067 104.496 30.1447 105.037 29.818C105.588 29.4913 106.237 29.328 106.983 29.328ZM106.983 30.952C106.535 30.952 106.199 31.1433 105.975 31.526C105.751 31.8993 105.639 32.4827 105.639 33.276C105.639 34.088 105.747 34.6807 105.961 35.054C106.185 35.4273 106.526 35.614 106.983 35.614C107.431 35.614 107.767 35.4273 107.991 35.054C108.215 34.6713 108.327 34.0833 108.327 33.29C108.327 32.478 108.215 31.8853 107.991 31.512C107.777 31.1387 107.441 30.952 106.983 30.952ZM118.41 34.844C118.41 35.124 118.448 35.3293 118.522 35.46C118.606 35.5907 118.737 35.6887 118.914 35.754L118.452 37.196C117.995 37.1587 117.622 37.0607 117.332 36.902C117.043 36.734 116.819 36.4727 116.66 36.118C116.175 36.8647 115.428 37.238 114.42 37.238C113.683 37.238 113.095 37.0233 112.656 36.594C112.218 36.1647 111.998 35.6047 111.998 34.914C111.998 34.102 112.297 33.4813 112.894 33.052C113.492 32.6227 114.355 32.408 115.484 32.408H116.24V32.086C116.24 31.6473 116.147 31.3487 115.96 31.19C115.774 31.022 115.447 30.938 114.98 30.938C114.738 30.938 114.444 30.9753 114.098 31.05C113.753 31.1153 113.398 31.2087 113.034 31.33L112.53 29.874C112.997 29.6967 113.473 29.5613 113.958 29.468C114.453 29.3747 114.91 29.328 115.33 29.328C116.394 29.328 117.174 29.5473 117.668 29.986C118.163 30.4247 118.41 31.0827 118.41 31.96V34.844ZM115.064 35.656C115.568 35.656 115.96 35.418 116.24 34.942V33.626H115.694C115.19 33.626 114.812 33.7147 114.56 33.892C114.318 34.0693 114.196 34.3447 114.196 34.718C114.196 35.0167 114.271 35.25 114.42 35.418C114.579 35.5767 114.794 35.656 115.064 35.656ZM127.536 26.612V37H125.576L125.464 36.132C124.942 36.8693 124.237 37.238 123.35 37.238C122.426 37.238 121.722 36.8833 121.236 36.174C120.76 35.4647 120.522 34.494 120.522 33.262C120.522 32.506 120.648 31.8293 120.9 31.232C121.152 30.6347 121.507 30.168 121.964 29.832C122.431 29.496 122.963 29.328 123.56 29.328C124.27 29.328 124.858 29.5613 125.324 30.028V26.374L127.536 26.612ZM124.036 35.614C124.55 35.614 124.979 35.334 125.324 34.774V31.568C125.147 31.3533 124.965 31.1947 124.778 31.092C124.601 30.9893 124.396 30.938 124.162 30.938C123.752 30.938 123.425 31.1293 123.182 31.512C122.94 31.8947 122.818 32.4827 122.818 33.276C122.818 34.144 122.921 34.7507 123.126 35.096C123.341 35.4413 123.644 35.614 124.036 35.614Z" fill="white"/>
</svg>
