<svg id="Слой_1" data-name="Слой 1" xmlns="http://www.w3.org/2000/svg" xmlns:xlink="http://www.w3.org/1999/xlink" viewBox="0 0 671.58 171.73"><defs><style>.cls-1,.cls-10,.cls-13,.cls-6,.cls-9{fill:none;}.cls-12,.cls-15,.cls-2{fill:#3b4167;}.cls-2,.cls-8{stroke:#fff;}.cls-10,.cls-12,.cls-13,.cls-2,.cls-6,.cls-8,.cls-9{stroke-miterlimit:10;}.cls-10,.cls-12,.cls-13,.cls-2{stroke-width:3px;}.cls-3{fill:#7f7e7c;}.cls-4{fill:url(#Безымянный_градиент_23);}.cls-5{fill:#2e2e2e;}.cls-6{stroke:#d24a43;stroke-linecap:round;}.cls-6,.cls-9{stroke-width:5px;}.cls-16,.cls-7,.cls-8{fill:#fff;}.cls-7{opacity:0.2;}.cls-9{stroke:#7f7e7c;}.cls-10{stroke:#979695;}.cls-11{fill:#d24a43;}.cls-12,.cls-13{stroke:url(#Unnamed_Pattern);}.cls-14{fill:#201600;}</style><linearGradient id="Безымянный_градиент_23" x1="232.04" y1="274.62" x2="237.26" y2="274.62" gradientTransform="translate(77.65 -55.27) rotate(14.93)" gradientUnits="userSpaceOnUse"><stop offset="0" stop-color="#fff"/><stop offset="0.24" stop-color="#fff" stop-opacity="0.99"/><stop offset="0.42" stop-color="#fff" stop-opacity="0.95"/><stop offset="0.57" stop-color="#fff" stop-opacity="0.89"/><stop offset="0.7" stop-color="#fff" stop-opacity="0.81"/><stop offset="0.83" stop-color="#fff" stop-opacity="0.69"/><stop offset="0.96" stop-color="#fff" stop-opacity="0.56"/><stop offset="1" stop-color="#fff" stop-opacity="0.5"/></linearGradient><pattern id="Unnamed_Pattern" data-name="Unnamed Pattern" width="844.89" height="598.28" patternUnits="userSpaceOnUse" viewBox="0 0 844.89 598.28"><rect class="cls-1" width="844.89" height="598.28"/><rect class="cls-2" x="1.5" y="1.5" width="841.89" height="595.28"/></pattern></defs><title>logo_form</title><path class="cls-3" d="M246,303l14.39-54a22.52,22.52,0,1,0-26.11-7l-14.39,54A22.52,22.52,0,1,0,246,303Zm-10.52-79.25a17.07,17.07,0,1,1,12.1,20.89A17.07,17.07,0,0,1,235.48,223.76ZM224.13,332.58A17.06,17.06,0,1,1,245,320.49,17.06,17.06,0,0,1,224.13,332.58Z" transform="translate(-110.21 -205.67)"/><path class="cls-4" d="M224.63,294.24l13-48.78s4.13,2.9,4.59,3l-12.17,45.64A6.33,6.33,0,0,0,224.63,294.24Z" transform="translate(-110.21 -205.67)"/><path class="cls-5" d="M231.49,305a11.51,11.51,0,1,0,8.16,14.08A11.5,11.5,0,0,0,231.49,305Zm-4.52,17a6,6,0,1,1,7.4-4.29A6.05,6.05,0,0,1,227,321.94Z" transform="translate(-110.21 -205.67)"/><path class="cls-5" d="M254.94,217a11.51,11.51,0,1,0,8.15,14.08A11.51,11.51,0,0,0,254.94,217Zm-4.52,17a6,6,0,1,1,7.39-4.28A6,6,0,0,1,250.42,234Z" transform="translate(-110.21 -205.67)"/><line class="cls-6" x1="155.43" y1="58.63" x2="114.44" y2="41.4"/><line class="cls-6" x1="152.42" y1="69.93" x2="111.43" y2="52.71"/><line class="cls-6" x1="146.51" y1="92.09" x2="105.52" y2="74.87"/><line class="cls-6" x1="149.48" y1="80.97" x2="108.49" y2="63.74"/><polygon class="cls-7" points="557.98 42.04 557.98 46.05 568.72 46.05 568.72 99.49 557.98 99.49 557.98 104.67 596.4 104.67 596.4 99.1 586.31 99.1 586.31 42.04 557.98 42.04"/><path class="cls-3" d="M284.73,225.39V319.5h25.91V247.07h56.58s9.51,2.11,3.17,11.63H323.33v22.73l38.33,38.34h35.69L361.8,284.21s30.8,4.63,35.55-19.69-8.46-40.72-29.08-41S284.73,225.39,284.73,225.39Z" transform="translate(-110.21 -205.67)"/><path class="cls-3" d="M522.66,223.54h-83s-27,2.91-29.61,27.76,19,31.72,46,31.19,49.17-4.23,38.07,11.63c0,0-29.05,2.65-60.79,2.65l-22.06,22.06H501s20.63-3,21.68-25.23c0,0,6.88-32.79-32.78-34.37s-53.93,6.34-53.4-9c0,0,2.11-5.29,9.52-5.29h56Z" transform="translate(-110.21 -205.67)"/><polygon class="cls-3" points="506.03 166.09 526.73 166.09 499.3 128.02 478.6 128.02 506.03 166.09"/><polygon class="cls-3" points="532.6 166.09 550.41 166.09 521.86 128.02 505.17 128.02 532.6 166.09"/><polygon class="cls-3" points="472.74 128.02 0 128.02 0 166.09 500.16 166.09 472.74 128.02"/><path class="cls-8" d="M247.76,352.64c0,8.35-8.45,12.78-18.76,12.78-10.67,0-18.16-5-18.16-12.32,0-7.7,8-12.74,18.76-12.74C240.63,340.36,247.76,345.43,247.76,352.64Zm-31.34.39c0,5.19,4.67,9.83,12.88,9.83s12.95-4.57,12.95-10.08c0-4.82-4.2-9.87-12.89-9.87S216.42,347.7,216.42,353Z" transform="translate(-110.21 -205.67)"/><path class="cls-8" d="M254.71,365V340.75h5.69l13,12.28a70.08,70.08,0,0,1,7.25,7.89l.12,0a65,65,0,0,1-.6-10V340.75H285V365h-5.27l-12.82-12.31a79.33,79.33,0,0,1-7.56-8.1l-.18,0a97.85,97.85,0,0,1,.42,10V365Z" transform="translate(-110.21 -205.67)"/><path class="cls-8" d="M312.42,343.42H300.13v-2.67H330v2.67H317.69V365h-5.27Z" transform="translate(-110.21 -205.67)"/><path class="cls-8" d="M339.93,340.75v10.16h19.53V340.75h5.28V365h-5.28V353.64H339.93V365h-5.22V340.75Z" transform="translate(-110.21 -205.67)"/><path class="cls-8" d="M394.88,353.64h-15.7v8.76h17.5V365H374V340.75h21.82v2.63h-16.6v7.67h15.7Z" transform="translate(-110.21 -205.67)"/><path class="cls-8" d="M416.51,341.08a88.12,88.12,0,0,1,10-.51c5.57,0,9.17.62,11.69,2a5.3,5.3,0,0,1,3.17,4.61c0,3.21-3.35,5.33-7.61,6.2v.1a7.5,7.5,0,0,1,5.93,4.9c1.32,3.39,2.28,5.73,3.12,6.66h-5.39c-.66-.68-1.56-2.77-2.7-5.79-1.2-3.35-3.36-4.61-8.09-4.72h-4.91V365h-5.22Zm5.22,11.05h5.33c5.57,0,9.11-1.83,9.11-4.61,0-3.13-3.78-4.5-9.29-4.53a36.06,36.06,0,0,0-5.15.28Z" transform="translate(-110.21 -205.67)"/><path class="cls-8" d="M483.63,352.64c0,8.35-8.45,12.78-18.76,12.78-10.66,0-18.16-5-18.16-12.32,0-7.7,8-12.74,18.76-12.74C476.5,340.36,483.63,345.43,483.63,352.64Zm-31.34.39c0,5.19,4.67,9.83,12.88,9.83s12.95-4.57,12.95-10.08c0-4.82-4.2-9.87-12.89-9.87S452.29,347.7,452.29,353Z" transform="translate(-110.21 -205.67)"/><path class="cls-8" d="M496.27,357.39,492.08,365h-5.39l13.72-24.27h6.29L520.49,365h-5.58l-4.31-7.63Zm13.25-2.45-4-7a42,42,0,0,1-2.09-4.43h-.12c-.6,1.44-1.26,2.91-2,4.39l-4,7Z" transform="translate(-110.21 -205.67)"/><path class="cls-8" d="M526.6,341.08c3.17-.29,6.95-.51,11.08-.51,7.5,0,12.83,1.05,16.36,3s5.7,4.79,5.7,8.71-2,7.2-5.82,9.44-10,3.49-17.85,3.49c-3.72,0-6.84-.11-9.47-.29Zm5.21,21.46c1.32.14,3.24.18,5.28.18,11.14,0,17.19-3.75,17.19-10.3.06-5.73-5.33-9.36-16.36-9.36a49,49,0,0,0-6.11.32Z" transform="translate(-110.21 -205.67)"/><polyline class="cls-9" points="639.19 71.69 639.19 71.69 571.92 167.38 498.95 63.61 571.71 19.14 593.63 32.47 594.87 33.22"/><polyline class="cls-10" points="632.93 71.53 572.19 157.91 507.28 65.6 572 26.03 595.42 40.26"/><polygon class="cls-3" points="60.75 77.35 69.31 77.35 91.52 55.15 78.57 55.15 60.75 77.35"/><polygon class="cls-3" points="54.65 77.35 72.47 55.15 66.55 55.15 48.73 77.35 54.65 77.35"/><polygon class="cls-3" points="0.58 17.87 0.58 113.83 26.29 113.83 26.29 98.24 26.03 98.03 26.29 97.72 26.29 77.35 42.63 77.35 60.45 55.15 26.29 55.15 26.29 39.81 91.52 39.81 113.46 17.87 0.58 17.87"/><polygon class="cls-3" points="446.82 97.83 446.82 113.83 473.26 113.83 473.26 80.45 446.82 97.83"/><polygon class="cls-3" points="429.9 17.85 407.56 40.2 446.82 40.2 446.82 92.14 473.26 74.75 473.26 41.4 500.23 41.4 534.07 17.87 429.9 17.85"/><polygon class="cls-11" points="553.98 45.04 553.98 49.05 564.72 49.05 564.72 102.49 553.98 102.49 553.98 107.67 592.4 107.67 592.4 102.1 582.31 102.1 582.31 45.04 553.98 45.04"/><path class="cls-12" d="M718.66,275.41" transform="translate(-110.21 -205.67)"/><path class="cls-3" d="M781.78,242.21l-42.65-6s12.63-3.55,20.93-6H709.78v42.84h42l30-15.33-22-6.09ZM721.42,266.8a21.26,21.26,0,0,1-7.07-1.09l1.14-2.21a17.32,17.32,0,0,0,6,1.15c3.33,0,4.89-1,4.89-2.37s-1.3-2.14-4.68-2.93c-4.53-1-6.66-2.61-6.66-4.52,0-2.57,3.27-4.68,8.69-4.68a18.47,18.47,0,0,1,6.19,1l-1.15,2.11a14.11,14.11,0,0,0-5.15-.92c-2.7,0-4.21,1-4.21,2.17s1.51,1.91,4.78,2.7c4.37,1.06,6.61,2.44,6.61,4.82C730.84,264.82,727.41,266.8,721.42,266.8Zm27.37-14.08h-6.56v8.6c0,2,.89,3.1,3.44,3.1a15.54,15.54,0,0,0,2.65-.2l.21,2.18a17.17,17.17,0,0,1-4.06.4,8.56,8.56,0,0,1-4.94-1.22c-1.3-.86-1.77-2.28-1.77-4.16v-8.7h-3.9v-2.21h3.9v-3.82l4.47-.76v4.58h6.56Z" transform="translate(-110.21 -205.67)"/><path class="cls-13" d="M764.52,224.81" transform="translate(-110.21 -205.67)"/><path class="cls-13" d="M702.61,275.41" transform="translate(-110.21 -205.67)"/><path class="cls-14" d="M751.32,240.51" transform="translate(-110.21 -205.67)"/><path class="cls-14" d="M720.4,268.41" transform="translate(-110.21 -205.67)"/><path class="cls-15" d="M754,232.91" transform="translate(-110.21 -205.67)"/><path class="cls-15" d="M738.38,249.76" transform="translate(-110.21 -205.67)"/><path class="cls-15" d="M738.38,249.76" transform="translate(-110.21 -205.67)"/><path class="cls-15" d="M734.56,253.89" transform="translate(-110.21 -205.67)"/><path class="cls-15" d="M734.56,253.89" transform="translate(-110.21 -205.67)"/><path class="cls-15" d="M730.94,257.81" transform="translate(-110.21 -205.67)"/><path class="cls-15" d="M730.94,257.81" transform="translate(-110.21 -205.67)"/><path class="cls-15" d="M730.4,258.39" transform="translate(-110.21 -205.67)"/><path class="cls-15" d="M730.4,258.39" transform="translate(-110.21 -205.67)"/><path class="cls-15" d="M731.35,254.43" transform="translate(-110.21 -205.67)"/><path class="cls-15" d="M729.46,256.47" transform="translate(-110.21 -205.67)"/><path class="cls-15" d="M729.46,256.47" transform="translate(-110.21 -205.67)"/><path class="cls-15" d="M729,257" transform="translate(-110.21 -205.67)"/><path class="cls-14" d="M731.33,243.21" transform="translate(-110.21 -205.67)"/><path class="cls-14" d="M722.51,252.57" transform="translate(-110.21 -205.67)"/><path class="cls-14" d="M722.51,252.57" transform="translate(-110.21 -205.67)"/><path class="cls-14" d="M721.68,253.46" transform="translate(-110.21 -205.67)"/><path class="cls-14" d="M721.68,253.46" transform="translate(-110.21 -205.67)"/><path class="cls-14" d="M716.83,258.61" transform="translate(-110.21 -205.67)"/><path class="cls-14" d="M737.06,247.47" transform="translate(-110.21 -205.67)"/><path class="cls-14" d="M730.11,254.43" transform="translate(-110.21 -205.67)"/><path class="cls-14" d="M730.11,254.43" transform="translate(-110.21 -205.67)"/><path class="cls-14" d="M727.76,256.78" transform="translate(-110.21 -205.67)"/><path class="cls-14" d="M727.76,256.78" transform="translate(-110.21 -205.67)"/><path class="cls-14" d="M727.72,256.81" transform="translate(-110.21 -205.67)"/><path class="cls-14" d="M726.67,257.87" transform="translate(-110.21 -205.67)"/><path class="cls-14" d="M725.08,259.45" transform="translate(-110.21 -205.67)"/><path class="cls-14" d="M725.08,259.45" transform="translate(-110.21 -205.67)"/><path class="cls-14" d="M722.85,261.69" transform="translate(-110.21 -205.67)"/><path class="cls-16" d="M704,229.43" transform="translate(-110.21 -205.67)"/><path class="cls-16" d="M703.69,238.05" transform="translate(-110.21 -205.67)"/><path class="cls-16" d="M703.3,248.2" transform="translate(-110.21 -205.67)"/></svg>