<svg width="223" height="80" viewBox="0 0 223 80" fill="none" xmlns="http://www.w3.org/2000/svg">
<rect x="128" y="17" width="94" height="49" stroke="#E5E7EB" stroke-width="2"/>
<path d="M3.51 58V20.578H25.812L24.894 26.896H12.366V36.832H23.274V43.15H12.366V58H3.51ZM39.3124 29.326V58H30.7804V29.326H39.3124ZM34.9924 14.206C36.4684 14.206 37.6744 14.674 38.6104 15.61C39.5824 16.51 40.0684 17.662 40.0684 19.066C40.0684 20.47 39.5824 21.64 38.6104 22.576C37.6744 23.476 36.4684 23.926 34.9924 23.926C33.5164 23.926 32.3104 23.476 31.3744 22.576C30.4384 21.64 29.9704 20.47 29.9704 19.066C29.9704 17.662 30.4384 16.51 31.3744 15.61C32.3104 14.674 33.5164 14.206 34.9924 14.206ZM64.2727 28.516C65.3167 28.516 66.2707 28.642 67.1347 28.894L65.7847 37.156C64.7047 36.904 63.8407 36.778 63.1927 36.778C61.5007 36.778 60.2047 37.372 59.3047 38.56C58.4407 39.712 57.7567 41.458 57.2527 43.798V58H48.7207V29.326H56.1727L56.8747 34.888C57.5227 32.908 58.4947 31.36 59.7907 30.244C61.1227 29.092 62.6167 28.516 64.2727 28.516ZM82.5597 28.408C84.6117 28.408 86.5377 28.714 88.3377 29.326C90.1377 29.938 91.7217 30.802 93.0897 31.918L89.9577 36.724C87.6177 35.248 85.2597 34.51 82.8837 34.51C81.7677 34.51 80.9037 34.708 80.2917 35.104C79.7157 35.464 79.4277 35.986 79.4277 36.67C79.4277 37.21 79.5537 37.66 79.8057 38.02C80.0937 38.344 80.6517 38.686 81.4797 39.046C82.3077 39.406 83.5857 39.838 85.3137 40.342C88.3017 41.206 90.5157 42.34 91.9557 43.744C93.4317 45.112 94.1697 47.02 94.1697 49.468C94.1697 51.412 93.6117 53.104 92.4957 54.544C91.3797 55.948 89.8497 57.028 87.9057 57.784C85.9617 58.54 83.8017 58.918 81.4257 58.918C79.0137 58.918 76.7637 58.54 74.6757 57.784C72.6237 57.028 70.8777 55.984 69.4377 54.652L73.5957 50.008C76.0077 51.88 78.5457 52.816 81.2097 52.816C82.5057 52.816 83.5137 52.582 84.2337 52.114C84.9897 51.646 85.3677 50.98 85.3677 50.116C85.3677 49.432 85.2237 48.892 84.9357 48.496C84.6477 48.1 84.0897 47.74 83.2617 47.416C82.4337 47.056 81.1197 46.624 79.3197 46.12C76.4757 45.292 74.3517 44.14 72.9477 42.664C71.5437 41.188 70.8417 39.352 70.8417 37.156C70.8417 35.5 71.3097 34.024 72.2457 32.728C73.2177 31.396 74.5857 30.352 76.3497 29.596C78.1497 28.804 80.2197 28.408 82.5597 28.408ZM119.247 56.65C118.203 57.37 116.979 57.928 115.575 58.324C114.207 58.72 112.839 58.918 111.471 58.918C105.207 58.882 102.075 55.426 102.075 48.55V35.266H98.0252V29.326H102.075V23.116L110.607 22.144V29.326H117.195L116.277 35.266H110.607V48.442C110.607 49.774 110.823 50.728 111.255 51.304C111.687 51.88 112.371 52.168 113.307 52.168C114.279 52.168 115.305 51.862 116.385 51.25L119.247 56.65Z" fill="#FFF73D"/>
<path d="M3.51 58H2.51V59H3.51V58ZM3.51 20.578V19.578H2.51V20.578H3.51ZM25.812 20.578L26.8016 20.7218L26.9678 19.578H25.812V20.578ZM24.894 26.896V27.896H25.7592L25.8836 27.0398L24.894 26.896ZM12.366 26.896V25.896H11.366V26.896H12.366ZM12.366 36.832H11.366V37.832H12.366V36.832ZM23.274 36.832H24.274V35.832H23.274V36.832ZM23.274 43.15V44.15H24.274V43.15H23.274ZM12.366 43.15V42.15H11.366V43.15H12.366ZM12.366 58V59H13.366V58H12.366ZM4.51 58V20.578H2.51V58H4.51ZM3.51 21.578H25.812V19.578H3.51V21.578ZM24.8224 20.4342L23.9044 26.7522L25.8836 27.0398L26.8016 20.7218L24.8224 20.4342ZM24.894 25.896H12.366V27.896H24.894V25.896ZM11.366 26.896V36.832H13.366V26.896H11.366ZM12.366 37.832H23.274V35.832H12.366V37.832ZM22.274 36.832V43.15H24.274V36.832H22.274ZM23.274 42.15H12.366V44.15H23.274V42.15ZM11.366 43.15V58H13.366V43.15H11.366ZM12.366 57H3.51V59H12.366V57ZM39.3124 29.326H40.3124V28.326H39.3124V29.326ZM39.3124 58V59H40.3124V58H39.3124ZM30.7804 58H29.7804V59H30.7804V58ZM30.7804 29.326V28.326H29.7804V29.326H30.7804ZM38.6104 15.61L37.9033 16.3171L37.9169 16.3307L37.931 16.3438L38.6104 15.61ZM38.6104 22.576L39.3035 23.2968L39.3041 23.2963L38.6104 22.576ZM31.3744 22.576L30.6673 23.2831L30.6742 23.29L30.6813 23.2968L31.3744 22.576ZM31.3744 15.61L32.0675 16.3308L32.0746 16.324L32.0815 16.3171L31.3744 15.61ZM38.3124 29.326V58H40.3124V29.326H38.3124ZM39.3124 57H30.7804V59H39.3124V57ZM31.7804 58V29.326H29.7804V58H31.7804ZM30.7804 30.326H39.3124V28.326H30.7804V30.326ZM34.9924 15.206C36.2366 15.206 37.1772 15.591 37.9033 16.3171L39.3175 14.9029C38.1716 13.757 36.7002 13.206 34.9924 13.206V15.206ZM37.931 16.3438C38.6853 17.0421 39.0684 17.9218 39.0684 19.066H41.0684C41.0684 17.4022 40.4796 15.9779 39.2898 14.8762L37.931 16.3438ZM39.0684 19.066C39.0684 20.2106 38.6843 21.1166 37.9168 21.8557L39.3041 23.2963C40.4805 22.1634 41.0684 20.7294 41.0684 19.066H39.0684ZM37.9173 21.8552C37.1934 22.5512 36.2482 22.926 34.9924 22.926V24.926C36.6886 24.926 38.1554 24.4008 39.3035 23.2968L37.9173 21.8552ZM34.9924 22.926C33.7366 22.926 32.7914 22.5512 32.0675 21.8552L30.6813 23.2968C31.8294 24.4008 33.2962 24.926 34.9924 24.926V22.926ZM32.0815 21.8689C31.3453 21.1327 30.9704 20.2226 30.9704 19.066H28.9704C28.9704 20.7174 29.5315 22.1473 30.6673 23.2831L32.0815 21.8689ZM30.9704 19.066C30.9704 17.9095 31.3446 17.0259 32.0675 16.3308L30.6813 14.8892C29.5322 15.9941 28.9704 17.4145 28.9704 19.066H30.9704ZM32.0815 16.3171C32.8076 15.591 33.7482 15.206 34.9924 15.206V13.206C33.2846 13.206 31.8132 13.757 30.6673 14.9029L32.0815 16.3171ZM67.1347 28.894L68.1216 29.0553L68.2643 28.1818L67.4147 27.934L67.1347 28.894ZM65.7847 37.156L65.5574 38.1298L66.5991 38.3729L66.7716 37.3173L65.7847 37.156ZM59.3047 38.56L58.5076 37.9561L58.5047 37.96L59.3047 38.56ZM57.2527 43.798L56.2751 43.5874L56.2527 43.6915V43.798H57.2527ZM57.2527 58V59H58.2527V58H57.2527ZM48.7207 58H47.7207V59H48.7207V58ZM48.7207 29.326V28.326H47.7207V29.326H48.7207ZM56.1727 29.326L57.1648 29.2008L57.0544 28.326H56.1727V29.326ZM56.8747 34.888L55.8825 35.0132L57.8251 35.199L56.8747 34.888ZM59.7907 30.244L60.4432 31.0018L60.4448 31.0004L59.7907 30.244ZM64.2727 29.516C65.2367 29.516 66.0948 29.6324 66.8547 29.854L67.4147 27.934C66.4465 27.6516 65.3966 27.516 64.2727 27.516V29.516ZM66.1478 28.7327L64.7977 36.9947L66.7716 37.3173L68.1216 29.0553L66.1478 28.7327ZM66.0119 36.1822C64.902 35.9232 63.9524 35.778 63.1927 35.778V37.778C63.729 37.778 64.5073 37.8848 65.5574 38.1298L66.0119 36.1822ZM63.1927 35.778C61.2359 35.778 59.624 36.4824 58.5076 37.9561L60.1017 39.1639C60.7853 38.2616 61.7654 37.778 63.1927 37.778V35.778ZM58.5047 37.96C57.515 39.2795 56.7919 41.188 56.2751 43.5874L58.2302 44.0086C58.7214 41.728 59.3663 40.1445 60.1047 39.16L58.5047 37.96ZM56.2527 43.798V58H58.2527V43.798H56.2527ZM57.2527 57H48.7207V59H57.2527V57ZM49.7207 58V29.326H47.7207V58H49.7207ZM48.7207 30.326H56.1727V28.326H48.7207V30.326ZM55.1805 29.4512L55.8825 35.0132L57.8668 34.7628L57.1648 29.2008L55.1805 29.4512ZM57.8251 35.199C58.4287 33.3545 59.3127 31.9753 60.4432 31.0018L59.1381 29.4862C57.6767 30.7447 56.6166 32.4615 55.9243 34.577L57.8251 35.199ZM60.4448 31.0004C61.6076 29.9947 62.8729 29.516 64.2727 29.516V27.516C62.3604 27.516 60.6377 28.1893 59.1365 29.4876L60.4448 31.0004ZM88.3377 29.326L88.0158 30.2728L88.3377 29.326ZM93.0897 31.918L93.9275 32.464L94.4181 31.7112L93.7218 31.1431L93.0897 31.918ZM89.9577 36.724L89.4242 37.5698L90.2575 38.0955L90.7955 37.27L89.9577 36.724ZM80.2917 35.104L80.8217 35.952L80.8283 35.9478L80.8349 35.9436L80.2917 35.104ZM79.8057 38.02L78.9864 38.5935L79.0197 38.641L79.0583 38.6844L79.8057 38.02ZM81.4797 39.046L81.0809 39.9631L81.4797 39.046ZM85.3137 40.342L85.0337 41.302L85.0359 41.3026L85.3137 40.342ZM91.9557 43.744L91.2576 44.46L91.2666 44.4688L91.2759 44.4774L91.9557 43.744ZM92.4957 54.544L93.2786 55.1663L93.2861 55.1566L92.4957 54.544ZM87.9057 57.784L88.2681 58.716L87.9057 57.784ZM74.6757 57.784L74.33 58.7224L74.3352 58.7243L74.6757 57.784ZM69.4377 54.652L68.6927 53.985L68.0363 54.718L68.7586 55.3861L69.4377 54.652ZM73.5957 50.008L74.2088 49.218L73.4724 48.6465L72.8507 49.341L73.5957 50.008ZM84.2337 52.114L83.7073 51.2637L83.6979 51.2695L83.6887 51.2756L84.2337 52.114ZM84.9357 48.496L84.1269 49.0842L84.9357 48.496ZM83.2617 47.416L82.8629 48.3331L82.88 48.3405L82.8973 48.3472L83.2617 47.416ZM79.3197 46.12L79.0401 47.0802L79.05 47.083L79.3197 46.12ZM72.9477 42.664L72.2231 43.3532L72.9477 42.664ZM72.2457 32.728L71.4379 32.1385L71.435 32.1425L72.2457 32.728ZM76.3497 29.596L76.7436 30.5152L76.7524 30.5113L76.3497 29.596ZM82.5597 29.408C84.5109 29.408 86.3273 29.6987 88.0158 30.2728L88.6596 28.3792C86.748 27.7293 84.7125 27.408 82.5597 27.408V29.408ZM88.0158 30.2728C89.7117 30.8494 91.1888 31.6578 92.4575 32.6929L93.7218 31.1431C92.2546 29.9462 90.5637 29.0266 88.6596 28.3792L88.0158 30.2728ZM92.2519 31.372L89.1199 36.178L90.7955 37.27L93.9275 32.464L92.2519 31.372ZM90.4912 35.8782C88.0182 34.3183 85.4778 33.51 82.8837 33.51V35.51C85.0415 35.51 87.2171 36.1777 89.4242 37.5698L90.4912 35.8782ZM82.8837 33.51C81.6699 33.51 80.5869 33.7219 79.7484 34.2644L80.8349 35.9436C81.2205 35.6941 81.8655 35.51 82.8837 35.51V33.51ZM79.7617 34.256C78.8908 34.8003 78.4277 35.6442 78.4277 36.67H80.4277C80.4277 36.3278 80.5405 36.1277 80.8217 35.952L79.7617 34.256ZM78.4277 36.67C78.4277 37.3676 78.5922 38.0302 78.9864 38.5935L80.6249 37.4465C80.5152 37.2898 80.4277 37.0524 80.4277 36.67H78.4277ZM79.0583 38.6844C79.5005 39.1819 80.2334 39.5946 81.0809 39.9631L81.8784 38.1289C81.07 37.7774 80.6868 37.5061 80.5531 37.3556L79.0583 38.6844ZM81.0809 39.9631C81.969 40.3492 83.2966 40.7954 85.0337 41.302L85.5937 39.382C83.8747 38.8806 82.6463 38.4628 81.8784 38.1289L81.0809 39.9631ZM85.0359 41.3026C87.9443 42.1436 89.9826 43.2169 91.2576 44.46L92.6538 43.028C91.0487 41.4631 88.659 40.2684 85.5914 39.3814L85.0359 41.3026ZM91.2759 44.4774C92.5045 45.6161 93.1697 47.2334 93.1697 49.468H95.1697C95.1697 46.8066 94.3589 44.6079 92.6354 43.0106L91.2759 44.4774ZM93.1697 49.468C93.1697 51.2061 92.676 52.6789 91.7053 53.9314L93.2861 55.1566C94.5474 53.5291 95.1697 51.6179 95.1697 49.468H93.1697ZM91.7129 53.9218C90.7239 55.1659 89.3494 56.1496 87.5432 56.852L88.2681 58.716C90.35 57.9064 92.0354 56.7301 93.2785 55.1662L91.7129 53.9218ZM87.5432 56.852C85.7297 57.5573 83.6948 57.918 81.4257 57.918V59.918C83.9086 59.918 86.1936 59.5227 88.2681 58.716L87.5432 56.852ZM81.4257 57.918C79.1197 57.918 76.9859 57.5569 75.0161 56.8437L74.3352 58.7243C76.5414 59.5231 78.9076 59.918 81.4257 59.918V57.918ZM75.0214 56.8457C73.0787 56.1299 71.4496 55.1508 70.1167 53.9179L68.7586 55.3861C70.3057 56.8172 72.1687 57.9261 74.33 58.7223L75.0214 56.8457ZM70.1827 55.319L74.3407 50.675L72.8507 49.341L68.6927 53.985L70.1827 55.319ZM72.9825 50.798C75.5431 52.7853 78.2919 53.816 81.2097 53.816V51.816C78.7994 51.816 76.4722 50.9747 74.2088 49.218L72.9825 50.798ZM81.2097 53.816C82.6072 53.816 83.8335 53.5668 84.7787 52.9524L83.6887 51.2756C83.1938 51.5972 82.4042 51.816 81.2097 51.816V53.816ZM84.76 52.9643C85.8 52.3204 86.3677 51.3384 86.3677 50.116H84.3677C84.3677 50.6216 84.1793 50.9716 83.7073 51.2637L84.76 52.9643ZM86.3677 50.116C86.3677 49.3023 86.1974 48.5307 85.7444 47.9078L84.1269 49.0842C84.25 49.2533 84.3677 49.5617 84.3677 50.116H86.3677ZM85.7444 47.9078C85.2851 47.2763 84.5069 46.8294 83.6261 46.4848L82.8973 48.3472C83.6725 48.6506 84.0103 48.9237 84.1269 49.0842L85.7444 47.9078ZM83.6604 46.4989C82.7662 46.1102 81.3972 45.6632 79.5893 45.157L79.05 47.083C80.8422 47.5848 82.1011 48.0018 82.8629 48.3331L83.6604 46.4989ZM79.5992 45.1599C76.8527 44.3602 74.9114 43.2775 73.6722 41.9748L72.2231 43.3532C73.792 45.0025 76.0987 46.2238 79.0401 47.0801L79.5992 45.1599ZM73.6722 41.9748C72.4596 40.7 71.8417 39.1174 71.8417 37.156H69.8417C69.8417 39.5866 70.6277 41.676 72.2231 43.3532L73.6722 41.9748ZM71.8417 37.156C71.8417 35.7022 72.2481 34.4327 73.0564 33.3135L71.435 32.1425C70.3713 33.6153 69.8417 35.2978 69.8417 37.156H71.8417ZM73.0535 33.3175C73.9033 32.1529 75.1172 31.2121 76.7436 30.5151L75.9557 28.6769C74.0541 29.4919 72.532 30.6392 71.4379 32.1385L73.0535 33.3175ZM76.7524 30.5113C78.4037 29.7847 80.3324 29.408 82.5597 29.408V27.408C80.1069 27.408 77.8956 27.8233 75.9469 28.6807L76.7524 30.5113ZM119.247 56.65L119.815 57.4732L120.547 56.968L120.131 56.1817L119.247 56.65ZM115.575 58.324L115.304 57.3615L115.297 57.3634L115.575 58.324ZM111.471 58.918L111.465 59.918H111.471V58.918ZM102.075 35.266H103.075V34.266H102.075V35.266ZM98.0252 35.266H97.0252V36.266H98.0252V35.266ZM98.0252 29.326V28.326H97.0252V29.326H98.0252ZM102.075 29.326V30.326H103.075V29.326H102.075ZM102.075 23.116L101.962 22.1224L101.075 22.2235V23.116H102.075ZM110.607 22.144H111.607V21.0236L110.494 21.1504L110.607 22.144ZM110.607 29.326H109.607V30.326H110.607V29.326ZM117.195 29.326L118.183 29.4787L118.362 28.326H117.195V29.326ZM116.277 35.266V36.266H117.135L117.265 35.4187L116.277 35.266ZM110.607 35.266V34.266H109.607V35.266H110.607ZM111.255 51.304L112.055 50.704L111.255 51.304ZM116.385 51.25L117.269 50.7817L116.787 49.8729L115.892 50.38L116.385 51.25ZM118.679 55.8268C117.738 56.4758 116.618 56.991 115.304 57.3615L115.847 59.2864C117.341 58.865 118.668 58.2642 119.815 57.4732L118.679 55.8268ZM115.297 57.3634C114.016 57.7344 112.741 57.918 111.471 57.918V59.918C112.937 59.918 114.399 59.7056 115.853 59.2846L115.297 57.3634ZM111.477 57.918C108.525 57.9011 106.485 57.0835 105.165 55.6275C103.83 54.154 103.075 51.8552 103.075 48.55H101.075C101.075 52.1208 101.887 54.988 103.683 56.9705C105.496 58.9705 108.154 59.8989 111.465 59.918L111.477 57.918ZM103.075 48.55V35.266H101.075V48.55H103.075ZM102.075 34.266H98.0252V36.266H102.075V34.266ZM99.0252 35.266V29.326H97.0252V35.266H99.0252ZM98.0252 30.326H102.075V28.326H98.0252V30.326ZM103.075 29.326V23.116H101.075V29.326H103.075ZM102.188 24.1096L110.72 23.1376L110.494 21.1504L101.962 22.1224L102.188 24.1096ZM109.607 22.144V29.326H111.607V22.144H109.607ZM110.607 30.326H117.195V28.326H110.607V30.326ZM116.207 29.1733L115.289 35.1133L117.265 35.4187L118.183 29.4787L116.207 29.1733ZM116.277 34.266H110.607V36.266H116.277V34.266ZM109.607 35.266V48.442H111.607V35.266H109.607ZM109.607 48.442C109.607 49.8307 109.822 51.0602 110.455 51.904L112.055 50.704C111.824 50.3958 111.607 49.7174 111.607 48.442H109.607ZM110.455 51.904C111.13 52.8044 112.16 53.168 113.307 53.168V51.168C112.583 51.168 112.244 50.9556 112.055 50.704L110.455 51.904ZM113.307 53.168C114.494 53.168 115.689 52.7941 116.878 52.12L115.892 50.38C114.922 50.9299 114.065 51.168 113.307 51.168V53.168ZM115.502 51.7183L118.364 57.1183L120.131 56.1817L117.269 50.7817L115.502 51.7183Z" fill="white"/>
<path d="M145.256 29.136C146.72 29.136 147.866 29.586 148.694 30.486C149.522 31.374 149.936 32.622 149.936 34.23C149.936 35.25 149.744 36.144 149.36 36.912C148.988 37.668 148.448 38.256 147.74 38.676C147.044 39.096 146.216 39.306 145.256 39.306C143.804 39.306 142.658 38.862 141.818 37.974C140.99 37.074 140.576 35.82 140.576 34.212C140.576 33.192 140.762 32.304 141.134 31.548C141.518 30.78 142.058 30.186 142.754 29.766C143.462 29.346 144.296 29.136 145.256 29.136ZM145.256 31.224C144.68 31.224 144.248 31.47 143.96 31.962C143.672 32.442 143.528 33.192 143.528 34.212C143.528 35.256 143.666 36.018 143.942 36.498C144.23 36.978 144.668 37.218 145.256 37.218C145.832 37.218 146.264 36.978 146.552 36.498C146.84 36.006 146.984 35.25 146.984 34.23C146.984 33.186 146.84 32.424 146.552 31.944C146.276 31.464 145.844 31.224 145.256 31.224ZM158.126 29.136C158.954 29.136 159.602 29.388 160.07 29.892C160.538 30.396 160.772 31.104 160.772 32.016V39H157.928V32.502C157.928 32.022 157.85 31.692 157.694 31.512C157.55 31.32 157.328 31.224 157.028 31.224C156.452 31.224 155.9 31.638 155.372 32.466V39H152.528V29.442H155.012L155.21 30.576C155.618 30.096 156.056 29.736 156.524 29.496C157.004 29.256 157.538 29.136 158.126 29.136ZM174.982 38.55C174.634 38.79 174.226 38.976 173.758 39.108C173.302 39.24 172.846 39.306 172.39 39.306C170.302 39.294 169.258 38.142 169.258 35.85V31.422H167.908V29.442H169.258V27.372L172.102 27.048V29.442H174.298L173.992 31.422H172.102V35.814C172.102 36.258 172.174 36.576 172.318 36.768C172.462 36.96 172.69 37.056 173.002 37.056C173.326 37.056 173.668 36.954 174.028 36.75L174.982 38.55ZM182.429 29.136C183.257 29.136 183.905 29.388 184.373 29.892C184.841 30.396 185.075 31.104 185.075 32.016V39H182.231V32.502C182.231 32.022 182.153 31.692 181.997 31.512C181.841 31.32 181.619 31.224 181.331 31.224C180.755 31.224 180.203 31.632 179.675 32.448V39H176.831V25.644L179.675 25.356V30.468C180.071 30.024 180.491 29.694 180.935 29.478C181.379 29.25 181.877 29.136 182.429 29.136ZM196.454 34.032C196.454 34.428 196.436 34.77 196.4 35.058H190.478C190.574 35.862 190.802 36.426 191.162 36.75C191.522 37.074 192.02 37.236 192.656 37.236C193.04 37.236 193.412 37.17 193.772 37.038C194.132 36.894 194.522 36.678 194.942 36.39L196.112 37.974C194.996 38.862 193.754 39.306 192.386 39.306C190.838 39.306 189.65 38.85 188.822 37.938C187.994 37.026 187.58 35.802 187.58 34.266C187.58 33.294 187.754 32.424 188.102 31.656C188.45 30.876 188.96 30.264 189.632 29.82C190.304 29.364 191.108 29.136 192.044 29.136C193.424 29.136 194.504 29.568 195.284 30.432C196.064 31.296 196.454 32.496 196.454 34.032ZM193.664 33.222C193.64 31.758 193.124 31.026 192.116 31.026C191.624 31.026 191.24 31.206 190.964 31.566C190.7 31.926 190.538 32.52 190.478 33.348H193.664V33.222ZM146.3 45.172C146.648 45.172 146.966 45.214 147.254 45.298L146.804 48.052C146.444 47.968 146.156 47.926 145.94 47.926C145.376 47.926 144.944 48.124 144.644 48.52C144.356 48.904 144.128 49.486 143.96 50.266V55H141.116V45.442H143.6L143.834 47.296C144.05 46.636 144.374 46.12 144.806 45.748C145.25 45.364 145.748 45.172 146.3 45.172ZM152.836 45.136C154.3 45.136 155.446 45.586 156.274 46.486C157.102 47.374 157.516 48.622 157.516 50.23C157.516 51.25 157.324 52.144 156.94 52.912C156.568 53.668 156.028 54.256 155.32 54.676C154.624 55.096 153.796 55.306 152.836 55.306C151.384 55.306 150.238 54.862 149.398 53.974C148.57 53.074 148.156 51.82 148.156 50.212C148.156 49.192 148.342 48.304 148.714 47.548C149.098 46.78 149.638 46.186 150.334 45.766C151.042 45.346 151.876 45.136 152.836 45.136ZM152.836 47.224C152.26 47.224 151.828 47.47 151.54 47.962C151.252 48.442 151.108 49.192 151.108 50.212C151.108 51.256 151.246 52.018 151.522 52.498C151.81 52.978 152.248 53.218 152.836 53.218C153.412 53.218 153.844 52.978 154.132 52.498C154.42 52.006 154.564 51.25 154.564 50.23C154.564 49.186 154.42 48.424 154.132 47.944C153.856 47.464 153.424 47.224 152.836 47.224ZM167.528 52.228C167.528 52.588 167.576 52.852 167.672 53.02C167.78 53.188 167.948 53.314 168.176 53.398L167.582 55.252C166.994 55.204 166.514 55.078 166.142 54.874C165.77 54.658 165.482 54.322 165.278 53.866C164.654 54.826 163.694 55.306 162.398 55.306C161.45 55.306 160.694 55.03 160.13 54.478C159.566 53.926 159.284 53.206 159.284 52.318C159.284 51.274 159.668 50.476 160.436 49.924C161.204 49.372 162.314 49.096 163.766 49.096H164.738V48.682C164.738 48.118 164.618 47.734 164.378 47.53C164.138 47.314 163.718 47.206 163.118 47.206C162.806 47.206 162.428 47.254 161.984 47.35C161.54 47.434 161.084 47.554 160.616 47.71L159.968 45.838C160.568 45.61 161.18 45.436 161.804 45.316C162.44 45.196 163.028 45.136 163.568 45.136C164.936 45.136 165.938 45.418 166.574 45.982C167.21 46.546 167.528 47.392 167.528 48.52V52.228ZM163.226 53.272C163.874 53.272 164.378 52.966 164.738 52.354V50.662H164.036C163.388 50.662 162.902 50.776 162.578 51.004C162.266 51.232 162.11 51.586 162.11 52.066C162.11 52.45 162.206 52.75 162.398 52.966C162.602 53.17 162.878 53.272 163.226 53.272ZM179.261 41.644V55H176.741L176.597 53.884C175.925 54.832 175.019 55.306 173.879 55.306C172.691 55.306 171.785 54.85 171.161 53.938C170.549 53.026 170.243 51.778 170.243 50.194C170.243 49.222 170.405 48.352 170.729 47.584C171.053 46.816 171.509 46.216 172.097 45.784C172.697 45.352 173.381 45.136 174.149 45.136C175.061 45.136 175.817 45.436 176.417 46.036V41.338L179.261 41.644ZM174.761 53.218C175.421 53.218 175.973 52.858 176.417 52.138V48.016C176.189 47.74 175.955 47.536 175.715 47.404C175.487 47.272 175.223 47.206 174.923 47.206C174.395 47.206 173.975 47.452 173.663 47.944C173.351 48.436 173.195 49.192 173.195 50.212C173.195 51.328 173.327 52.108 173.591 52.552C173.867 52.996 174.257 53.218 174.761 53.218Z" fill="white"/>
</svg>
